<svg xmlns="http://www.w3.org/2000/svg" width="120" height="120" viewBox="0 0 120 120" fill="none">
  <defs>
    <linearGradient id="g" x1="0" x2="1">
      <stop offset="0%" stop-color="#3aa588"/>
      <stop offset="100%" stop-color="#0b6e4f"/>
    </linearGradient>
  </defs>
  <rect width="120" height="120" rx="20" fill="url(#g)" />
  <g transform="translate(28,28) scale(0.45)" fill="#fff">
    <path d="M44.8 3.2c-1.1-.7-2.5-.4-3.2.7L26.7 25.7 6.2 30.9c-1.3.4-2.1 1.6-2 2.9.1 1.3 1.1 2.3 2.4 2.6l19.6 4.6L41.6 72c.5 1.2 1.8 1.9 3.1 1.6 1.3-.3 2.1-1.4 2.1-2.7V11.1c0-1.1-.6-2.1-1.7-2.9z"/>
    <path d="M82.2 35.9c-.9-1.1-2.5-1.4-3.6-.6L56.9 52.9 48.8 31.8c-.5-1.4-2-2.1-3.5-1.6-1.5.5-2.3 2-1.9 3.4l9.2 34.6 25.6-19.7c1.1-.8 1.4-2.4.6-3.4L82.2 35.9z"/>
  </g>
</svg>
